<svg width="141" height="45" viewBox="0 0 141 45" fill="none" xmlns="http://www.w3.org/2000/svg">
<path d="M117.628 11.2499C119.702 11.2499 121.399 12.9374 121.399 14.9999C121.399 17.0624 119.702 18.7499 117.628 18.7499C115.554 18.7499 113.857 17.0624 113.857 14.9999C113.857 12.9374 115.554 11.2499 117.628 11.2499ZM117.628 29.9999C122.719 29.9999 128.565 32.4186 128.942 33.7499H106.314C106.748 32.3999 112.555 29.9999 117.628 29.9999ZM117.628 7.49988C113.461 7.49988 110.085 10.8561 110.085 14.9999C110.085 19.1436 113.461 22.4999 117.628 22.4999C121.795 22.4999 125.171 19.1436 125.171 14.9999C125.171 10.8561 121.795 7.49988 117.628 7.49988ZM117.628 26.2499C112.593 26.2499 102.543 28.7624 102.543 33.7499V37.4999H132.713V33.7499C132.713 28.7624 122.663 26.2499 117.628 26.2499Z" fill="black"/>
<path d="M5.62891 31H2.66016L2.67969 29.4668H5.62891C6.64453 29.4668 7.49089 29.2552 8.16797 28.832C8.84505 28.4023 9.35286 27.8034 9.69141 27.0352C10.0365 26.2604 10.209 25.3555 10.209 24.3203V23.4512C10.209 22.6374 10.1113 21.9147 9.91602 21.2832C9.7207 20.6452 9.43424 20.1081 9.05664 19.6719C8.67904 19.2292 8.2168 18.8939 7.66992 18.666C7.12956 18.4382 6.50781 18.3242 5.80469 18.3242H2.60156V16.7812H5.80469C6.73568 16.7812 7.58529 16.9375 8.35352 17.25C9.12174 17.556 9.78255 18.002 10.3359 18.5879C10.8958 19.1673 11.3255 19.8704 11.625 20.6973C11.9245 21.5176 12.0742 22.4421 12.0742 23.4707V24.3203C12.0742 25.349 11.9245 26.2767 11.625 27.1035C11.3255 27.9238 10.8926 28.6237 10.3262 29.2031C9.76628 29.7826 9.08919 30.2285 8.29492 30.541C7.50716 30.847 6.61849 31 5.62891 31ZM3.66602 16.7812V31H1.78125V16.7812H3.66602ZM20.8633 29.1934V23.7539C20.8633 23.3372 20.7786 22.9759 20.6094 22.6699C20.4466 22.3574 20.1992 22.1165 19.8672 21.9473C19.5352 21.778 19.125 21.6934 18.6367 21.6934C18.181 21.6934 17.7806 21.7715 17.4355 21.9277C17.097 22.084 16.8301 22.2891 16.6348 22.543C16.446 22.7969 16.3516 23.0703 16.3516 23.3633H14.5449C14.5449 22.9857 14.6426 22.6113 14.8379 22.2402C15.0332 21.8691 15.3132 21.5339 15.6777 21.2344C16.0488 20.9284 16.4915 20.6875 17.0059 20.5117C17.5267 20.3294 18.1061 20.2383 18.7441 20.2383C19.5124 20.2383 20.1895 20.3685 20.7754 20.6289C21.3678 20.8893 21.8301 21.2832 22.1621 21.8105C22.5007 22.3314 22.6699 22.9857 22.6699 23.7734V28.6953C22.6699 29.0469 22.6992 29.4212 22.7578 29.8184C22.8229 30.2155 22.9173 30.5573 23.041 30.8438V31H21.1562C21.0651 30.7917 20.9935 30.515 20.9414 30.1699C20.8893 29.8184 20.8633 29.4928 20.8633 29.1934ZM21.1758 24.5938L21.1953 25.8633H19.3691C18.8548 25.8633 18.3958 25.9056 17.9922 25.9902C17.5885 26.0684 17.25 26.1888 16.9766 26.3516C16.7031 26.5143 16.4948 26.7194 16.3516 26.9668C16.2083 27.2077 16.1367 27.4909 16.1367 27.8164C16.1367 28.1484 16.2116 28.4512 16.3613 28.7246C16.5111 28.998 16.7357 29.2161 17.0352 29.3789C17.3411 29.5352 17.7155 29.6133 18.1582 29.6133C18.7116 29.6133 19.1999 29.4961 19.623 29.2617C20.0462 29.0273 20.3815 28.7409 20.6289 28.4023C20.8828 28.0638 21.0195 27.735 21.0391 27.416L21.8105 28.2852C21.765 28.5586 21.6413 28.8613 21.4395 29.1934C21.2376 29.5254 20.9674 29.8444 20.6289 30.1504C20.2969 30.4499 19.8997 30.7005 19.4375 30.9023C18.9818 31.0977 18.4674 31.1953 17.8945 31.1953C17.1784 31.1953 16.5501 31.0553 16.0098 30.7754C15.4759 30.4954 15.0592 30.1211 14.7598 29.6523C14.4668 29.1771 14.3203 28.6465 14.3203 28.0605C14.3203 27.4941 14.431 26.9961 14.6523 26.5664C14.8737 26.1302 15.1927 25.7689 15.6094 25.4824C16.026 25.1895 16.5273 24.9681 17.1133 24.8184C17.6992 24.6686 18.3535 24.5938 19.0762 24.5938H21.1758ZM31.6641 28.1973C31.6641 27.9368 31.6055 27.696 31.4883 27.4746C31.3776 27.2467 31.1465 27.0417 30.7949 26.8594C30.4499 26.6706 29.929 26.5078 29.2324 26.3711C28.6465 26.2474 28.1159 26.1009 27.6406 25.9316C27.1719 25.7624 26.7715 25.5573 26.4395 25.3164C26.1139 25.0755 25.8633 24.7923 25.6875 24.4668C25.5117 24.1413 25.4238 23.7604 25.4238 23.3242C25.4238 22.9076 25.515 22.5137 25.6973 22.1426C25.8861 21.7715 26.1497 21.4427 26.4883 21.1562C26.8333 20.8698 27.2467 20.6452 27.7285 20.4824C28.2103 20.3197 28.7474 20.2383 29.3398 20.2383C30.1862 20.2383 30.9089 20.388 31.5078 20.6875C32.1068 20.987 32.5658 21.3874 32.8848 21.8887C33.2038 22.3835 33.3633 22.9336 33.3633 23.5391H31.5566C31.5566 23.2461 31.4688 22.9629 31.293 22.6895C31.1237 22.4095 30.873 22.1784 30.541 21.9961C30.2155 21.8138 29.8151 21.7227 29.3398 21.7227C28.8385 21.7227 28.4316 21.8008 28.1191 21.957C27.8132 22.1068 27.5885 22.2988 27.4453 22.5332C27.3086 22.7676 27.2402 23.015 27.2402 23.2754C27.2402 23.4707 27.2728 23.6465 27.3379 23.8027C27.4095 23.9525 27.5332 24.0924 27.709 24.2227C27.8848 24.3464 28.1322 24.4635 28.4512 24.5742C28.7702 24.6849 29.1771 24.7956 29.6719 24.9062C30.5378 25.1016 31.2507 25.3359 31.8105 25.6094C32.3704 25.8828 32.7871 26.2181 33.0605 26.6152C33.334 27.0124 33.4707 27.4941 33.4707 28.0605C33.4707 28.5228 33.373 28.946 33.1777 29.3301C32.9889 29.7142 32.7122 30.0462 32.3477 30.3262C31.9896 30.5996 31.5599 30.8145 31.0586 30.9707C30.5638 31.1204 30.0072 31.1953 29.3887 31.1953C28.4577 31.1953 27.6699 31.0293 27.0254 30.6973C26.3809 30.3652 25.8926 29.9355 25.5605 29.4082C25.2285 28.8809 25.0625 28.3242 25.0625 27.7383H26.8789C26.9049 28.2331 27.0482 28.627 27.3086 28.9199C27.569 29.2064 27.888 29.4115 28.2656 29.5352C28.6432 29.6523 29.0176 29.7109 29.3887 29.7109C29.8835 29.7109 30.2969 29.6458 30.6289 29.5156C30.9674 29.3854 31.2246 29.2064 31.4004 28.9785C31.5762 28.7507 31.6641 28.4902 31.6641 28.1973ZM37.6504 16V31H35.8438V16H37.6504ZM37.2207 25.3164L36.4688 25.2871C36.4753 24.5645 36.5827 23.8971 36.791 23.2852C36.9993 22.6667 37.2923 22.1296 37.6699 21.6738C38.0475 21.2181 38.4967 20.8665 39.0176 20.6191C39.5449 20.3652 40.1276 20.2383 40.7656 20.2383C41.2865 20.2383 41.7552 20.3099 42.1719 20.4531C42.5885 20.5898 42.9434 20.8112 43.2363 21.1172C43.5358 21.4232 43.7637 21.8203 43.9199 22.3086C44.0762 22.7904 44.1543 23.3796 44.1543 24.0762V31H42.3379V24.0566C42.3379 23.5033 42.2565 23.0605 42.0938 22.7285C41.931 22.39 41.6934 22.1458 41.3809 21.9961C41.0684 21.8398 40.6842 21.7617 40.2285 21.7617C39.7793 21.7617 39.3691 21.8561 38.998 22.0449C38.6335 22.2337 38.3177 22.4941 38.0508 22.8262C37.7904 23.1582 37.5853 23.5391 37.4355 23.9688C37.2923 24.3919 37.2207 24.8411 37.2207 25.3164ZM46.8496 16H48.666V28.9492L48.5098 31H46.8496V16ZM55.8047 25.6289V25.834C55.8047 26.6022 55.7135 27.3151 55.5312 27.9727C55.349 28.6237 55.082 29.1901 54.7305 29.6719C54.3789 30.1536 53.9492 30.528 53.4414 30.7949C52.9336 31.0618 52.3509 31.1953 51.6934 31.1953C51.0228 31.1953 50.4336 31.0814 49.9258 30.8535C49.4245 30.6191 49.0013 30.2839 48.6562 29.8477C48.3112 29.4115 48.0345 28.8841 47.8262 28.2656C47.6243 27.6471 47.4844 26.9505 47.4062 26.1758V25.2773C47.4844 24.4961 47.6243 23.7962 47.8262 23.1777C48.0345 22.5592 48.3112 22.0319 48.6562 21.5957C49.0013 21.153 49.4245 20.8177 49.9258 20.5898C50.4271 20.3555 51.0098 20.2383 51.6738 20.2383C52.3379 20.2383 52.9271 20.3685 53.4414 20.6289C53.9557 20.8828 54.3854 21.2474 54.7305 21.7227C55.082 22.1979 55.349 22.7676 55.5312 23.4316C55.7135 24.0892 55.8047 24.8216 55.8047 25.6289ZM53.9883 25.834V25.6289C53.9883 25.1016 53.9395 24.6068 53.8418 24.1445C53.7441 23.6758 53.5879 23.2656 53.373 22.9141C53.1582 22.556 52.875 22.276 52.5234 22.0742C52.1719 21.8659 51.7389 21.7617 51.2246 21.7617C50.7689 21.7617 50.3717 21.8398 50.0332 21.9961C49.7012 22.1523 49.418 22.3639 49.1836 22.6309C48.9492 22.8913 48.7572 23.1908 48.6074 23.5293C48.4642 23.8613 48.3568 24.2064 48.2852 24.5645V26.918C48.3893 27.3737 48.5586 27.8132 48.793 28.2363C49.0339 28.653 49.3529 28.9948 49.75 29.2617C50.1536 29.5286 50.6517 29.6621 51.2441 29.6621C51.7324 29.6621 52.1491 29.5645 52.4941 29.3691C52.8457 29.1673 53.1289 28.8906 53.3438 28.5391C53.5651 28.1875 53.7279 27.7806 53.832 27.3184C53.9362 26.8561 53.9883 26.3613 53.9883 25.834ZM57.6113 25.834V25.6094C57.6113 24.8477 57.722 24.1413 57.9434 23.4902C58.1647 22.8327 58.4837 22.263 58.9004 21.7812C59.3171 21.293 59.8216 20.9154 60.4141 20.6484C61.0065 20.375 61.6706 20.2383 62.4062 20.2383C63.1484 20.2383 63.8158 20.375 64.4082 20.6484C65.0072 20.9154 65.515 21.293 65.9316 21.7812C66.3548 22.263 66.6771 22.8327 66.8984 23.4902C67.1198 24.1413 67.2305 24.8477 67.2305 25.6094V25.834C67.2305 26.5957 67.1198 27.3021 66.8984 27.9531C66.6771 28.6042 66.3548 29.1738 65.9316 29.6621C65.515 30.1439 65.0104 30.5215 64.418 30.7949C63.832 31.0618 63.168 31.1953 62.4258 31.1953C61.6836 31.1953 61.0163 31.0618 60.4238 30.7949C59.8314 30.5215 59.3236 30.1439 58.9004 29.6621C58.4837 29.1738 58.1647 28.6042 57.9434 27.9531C57.722 27.3021 57.6113 26.5957 57.6113 25.834ZM59.418 25.6094V25.834C59.418 26.3613 59.4798 26.8594 59.6035 27.3281C59.7272 27.7904 59.9128 28.2005 60.1602 28.5586C60.4141 28.9167 60.7298 29.1999 61.1074 29.4082C61.485 29.61 61.9245 29.7109 62.4258 29.7109C62.9206 29.7109 63.3535 29.61 63.7246 29.4082C64.1022 29.1999 64.4147 28.9167 64.6621 28.5586C64.9095 28.2005 65.0951 27.7904 65.2188 27.3281C65.349 26.8594 65.4141 26.3613 65.4141 25.834V25.6094C65.4141 25.0885 65.349 24.597 65.2188 24.1348C65.0951 23.666 64.9062 23.2526 64.6523 22.8945C64.4049 22.5299 64.0924 22.2435 63.7148 22.0352C63.3438 21.8268 62.9076 21.7227 62.4062 21.7227C61.9115 21.7227 61.4753 21.8268 61.0977 22.0352C60.7266 22.2435 60.4141 22.5299 60.1602 22.8945C59.9128 23.2526 59.7272 23.666 59.6035 24.1348C59.4798 24.597 59.418 25.0885 59.418 25.6094ZM75.7266 29.1934V23.7539C75.7266 23.3372 75.6419 22.9759 75.4727 22.6699C75.3099 22.3574 75.0625 22.1165 74.7305 21.9473C74.3984 21.778 73.9883 21.6934 73.5 21.6934C73.0443 21.6934 72.6439 21.7715 72.2988 21.9277C71.9603 22.084 71.6934 22.2891 71.498 22.543C71.3092 22.7969 71.2148 23.0703 71.2148 23.3633H69.4082C69.4082 22.9857 69.5059 22.6113 69.7012 22.2402C69.8965 21.8691 70.1764 21.5339 70.541 21.2344C70.9121 20.9284 71.3548 20.6875 71.8691 20.5117C72.39 20.3294 72.9694 20.2383 73.6074 20.2383C74.3757 20.2383 75.0527 20.3685 75.6387 20.6289C76.2311 20.8893 76.6934 21.2832 77.0254 21.8105C77.3639 22.3314 77.5332 22.9857 77.5332 23.7734V28.6953C77.5332 29.0469 77.5625 29.4212 77.6211 29.8184C77.6862 30.2155 77.7806 30.5573 77.9043 30.8438V31H76.0195C75.9284 30.7917 75.8568 30.515 75.8047 30.1699C75.7526 29.8184 75.7266 29.4928 75.7266 29.1934ZM76.0391 24.5938L76.0586 25.8633H74.2324C73.7181 25.8633 73.2591 25.9056 72.8555 25.9902C72.4518 26.0684 72.1133 26.1888 71.8398 26.3516C71.5664 26.5143 71.3581 26.7194 71.2148 26.9668C71.0716 27.2077 71 27.4909 71 27.8164C71 28.1484 71.0749 28.4512 71.2246 28.7246C71.3743 28.998 71.599 29.2161 71.8984 29.3789C72.2044 29.5352 72.5788 29.6133 73.0215 29.6133C73.5749 29.6133 74.0632 29.4961 74.4863 29.2617C74.9095 29.0273 75.2448 28.7409 75.4922 28.4023C75.7461 28.0638 75.8828 27.735 75.9023 27.416L76.6738 28.2852C76.6283 28.5586 76.5046 28.8613 76.3027 29.1934C76.1009 29.5254 75.8307 29.8444 75.4922 30.1504C75.1602 30.4499 74.763 30.7005 74.3008 30.9023C73.8451 31.0977 73.3307 31.1953 72.7578 31.1953C72.0417 31.1953 71.4134 31.0553 70.873 30.7754C70.3392 30.4954 69.9225 30.1211 69.623 29.6523C69.3301 29.1771 69.1836 28.6465 69.1836 28.0605C69.1836 27.4941 69.2943 26.9961 69.5156 26.5664C69.737 26.1302 70.056 25.7689 70.4727 25.4824C70.8893 25.1895 71.3906 24.9681 71.9766 24.8184C72.5625 24.6686 73.2168 24.5938 73.9395 24.5938H76.0391ZM82.1816 22.0938V31H80.375V20.4336H82.1328L82.1816 22.0938ZM85.4824 20.375L85.4727 22.0547C85.3229 22.0221 85.1797 22.0026 85.043 21.9961C84.9128 21.9831 84.763 21.9766 84.5938 21.9766C84.1771 21.9766 83.8092 22.0417 83.4902 22.1719C83.1712 22.3021 82.901 22.4844 82.6797 22.7188C82.4583 22.9531 82.2826 23.2331 82.1523 23.5586C82.0286 23.8776 81.9473 24.2292 81.9082 24.6133L81.4004 24.9062C81.4004 24.2682 81.4622 23.6693 81.5859 23.1094C81.7161 22.5495 81.9147 22.0547 82.1816 21.625C82.4486 21.1888 82.7871 20.8503 83.1973 20.6094C83.6139 20.362 84.1087 20.2383 84.6816 20.2383C84.8118 20.2383 84.9616 20.2546 85.1309 20.2871C85.3001 20.3132 85.4173 20.3424 85.4824 20.375ZM93.6172 28.9492V16H95.4336V31H93.7734L93.6172 28.9492ZM86.5078 25.834V25.6289C86.5078 24.8216 86.6055 24.0892 86.8008 23.4316C87.0026 22.7676 87.2858 22.1979 87.6504 21.7227C88.0215 21.2474 88.4609 20.8828 88.9688 20.6289C89.4831 20.3685 90.056 20.2383 90.6875 20.2383C91.3516 20.2383 91.931 20.3555 92.4258 20.5898C92.9271 20.8177 93.3503 21.153 93.6953 21.5957C94.0469 22.0319 94.3236 22.5592 94.5254 23.1777C94.7272 23.7962 94.8672 24.4961 94.9453 25.2773V26.1758C94.8737 26.9505 94.7337 27.6471 94.5254 28.2656C94.3236 28.8841 94.0469 29.4115 93.6953 29.8477C93.3503 30.2839 92.9271 30.6191 92.4258 30.8535C91.9245 31.0814 91.3385 31.1953 90.668 31.1953C90.0495 31.1953 89.4831 31.0618 88.9688 30.7949C88.4609 30.528 88.0215 30.1536 87.6504 29.6719C87.2858 29.1901 87.0026 28.6237 86.8008 27.9727C86.6055 27.3151 86.5078 26.6022 86.5078 25.834ZM88.3242 25.6289V25.834C88.3242 26.3613 88.3763 26.8561 88.4805 27.3184C88.5911 27.7806 88.7604 28.1875 88.9883 28.5391C89.2161 28.8906 89.5059 29.1673 89.8574 29.3691C90.209 29.5645 90.6289 29.6621 91.1172 29.6621C91.7161 29.6621 92.2077 29.5352 92.5918 29.2812C92.9824 29.0273 93.2949 28.6921 93.5293 28.2754C93.7637 27.8587 93.946 27.4062 94.0762 26.918V24.5645C93.998 24.2064 93.8841 23.8613 93.7344 23.5293C93.5911 23.1908 93.4023 22.8913 93.168 22.6309C92.9401 22.3639 92.6569 22.1523 92.3184 21.9961C91.9863 21.8398 91.5924 21.7617 91.1367 21.7617C90.6419 21.7617 90.2155 21.8659 89.8574 22.0742C89.5059 22.276 89.2161 22.556 88.9883 22.9141C88.7604 23.2656 88.5911 23.6758 88.4805 24.1445C88.3763 24.6068 88.3242 25.1016 88.3242 25.6289Z" fill="black"/>
</svg>
